# xmcd
#
# Track frame offsets:
#	150
#	18162
#	33655
#	47230
#	64952
#
# Disc length: 1072 seconds
#
# Revision: 2
# Processed by: cddbd v1.5.2PL0 Copyright (c) Steve Scherf et al.
# Submitted via: audiograbber 1.83.01
#
DISCID=3f042e05
DTITLE=Bernd Apitz - Maxi CD - Eine Nacht mit Dir allein (LC 3778)
DYEAR=1900
DGENRE=Deutsch
TTITLE0=Eine Nacht mit Dir allein
TTITLE1=Mit Dir zu den Sternen fliegen
TTITLE2=Ein Freifahrtschein
TTITLE3=Eine Nacht mit Dir allein (D.j. Dance Club Mix Version)
TTITLE4=Eine Nacht mit Dir allein (Karaoke Version)
EXTD=
EXTT0=
EXTT1=
EXTT2=
EXTT3=
EXTT4=
PLAYORDER=
